{"asset":{"version":"2.0","generator":"babylon.js glTF exporter for 3dsmax 2018 v20200917.1"},"scene":0,"scenes":[{"nodes":[0,6]}],"nodes":[{"children":[1,2,3,4,5],"translation":[-0.08453055,1.68639708,-0.0159418564],"name":"house"},{"mesh":0,"translation":[0.204665273,-1.68639708,0.03015998],"name":"Box001"},{"mesh":1,"translation":[-0.344239026,-0.2033931,0.006974683],"rotation":[0.5,-0.5,0.50000006,0.49999994],"scale":[0.889225841,1.61968017,1.43020725],"name":"Cone002"},{"mesh":2,"translation":[-0.36125654,-0.193982154,0.00750681432],"rotation":[0.5,-0.5,0.50000006,0.49999994],"scale":[0.6639076,1.0174588,1.0],"name":"Tube001"},{"mesh":3,"translation":[0.218334734,0.373491526,0.0344883],"name":"Pyramid001"},{"mesh":4,"translation":[4.84466547E-08,-1.68639708,0.0],"scale":[3.967694,1.0,3.92505431],"name":"Cone001"},{"name":"Default light"}],"meshes":[{"primitives":[{"attributes":{"POSITION":1,"NORMAL":2,"TEXCOORD_0":3},"indices":0,"material":0}],"name":"Box001"},{"primitives":[{"attributes":{"POSITION":5,"NORMAL":6,"TEXCOORD_0":7},"indices":4,"material":1}],"name":"Cone002"},{"primitives":[{"attributes":{"POSITION":9,"NORMAL":10,"TEXCOORD_0":11},"indices":8,"material":2}],"name":"Tube001"},{"primitives":[{"attributes":{"POSITION":13,"NORMAL":14,"TEXCOORD_0":15},"indices":12,"material":3}],"name":"Pyramid001"},{"primitives":[{"attributes":{"POSITION":17,"NORMAL":18,"TEXCOORD_0":19},"indices":16,"material":4}],"name":"Cone001"}],"accessors":[{"bufferView":0,"componentType":5123,"count":252,"type":"SCALAR","name":"accessorIndices"},{"bufferView":1,"componentType":5126,"count":252,"max":[0.6264189,2.0543108,0.6779054],"min":[-0.6264189,0.0,-0.6779054],"type":"VEC3","name":"accessorPositions"},{"bufferView":1,"byteOffset":3024,"componentType":5126,"count":252,"type":"VEC3","name":"accessorNormals"},{"bufferView":2,"componentType":5126,"count":252,"type":"VEC2","name":"accessorUVs"},{"bufferView":0,"byteOffset":504,"componentType":5123,"count":864,"type":"SCALAR","name":"accessorIndices"},{"bufferView":1,"byteOffset":6048,"componentType":5126,"count":864,"max":[0.181958884,0.0,0.181958884],"min":[-0.181958884,-0.6864865,-0.181958884],"type":"VEC3","name":"accessorPositions"},{"bufferView":1,"byteOffset":16416,"componentType":5126,"count":864,"type":"VEC3","name":"accessorNormals"},{"bufferView":2,"byteOffset":2016,"componentType":5126,"count":864,"type":"VEC2","name":"accessorUVs"},{"bufferView":0,"byteOffset":2232,"componentType":5123,"count":1296,"type":"SCALAR","name":"accessorIndices"},{"bufferView":1,"byteOffset":26784,"componentType":5126,"count":1296,"max":[0.22036767,0.0,0.2237672],"min":[-0.22036767,-1.11554062,-0.2237672],"type":"VEC3","name":"accessorPositions"},{"bufferView":1,"byteOffset":42336,"componentType":5126,"count":1296,"type":"VEC3","name":"accessorNormals"},{"bufferView":2,"byteOffset":8928,"componentType":5126,"count":1296,"type":"VEC2","name":"accessorUVs"},{"bufferView":0,"byteOffset":4824,"componentType":5123,"count":240,"type":"SCALAR","name":"accessorIndices"},{"bufferView":1,"byteOffset":57888,"componentType":5126,"count":240,"max":[0.737973,1.31290531,0.7293918],"min":[-0.737973,-8.2359314E-08,-0.7293918],"type":"VEC3","name":"accessorPositions"},{"bufferView":1,"byteOffset":60768,"componentType":5126,"count":240,"type":"VEC3","name":"accessorNormals"},{"bufferView":2,"byteOffset":19296,"componentType":5126,"count":240,"type":"VEC2","name":"accessorUVs"},{"bufferView":0,"byteOffset":5304,"componentType":5123,"count":864,"type":"SCALAR","name":"accessorIndices"},{"bufferView":1,"byteOffset":63648,"componentType":5126,"count":864,"max":[0.406879723,0.0230014864,0.406879723],"min":[-0.406879723,0.0,-0.406879723],"type":"VEC3","name":"accessorPositions"},{"bufferView":1,"byteOffset":74016,"componentType":5126,"count":864,"type":"VEC3","name":"accessorNormals"},{"bufferView":2,"byteOffset":21216,"componentType":5126,"count":864,"type":"VEC2","name":"accessorUVs"}],"bufferViews":[{"buffer":0,"byteLength":7032,"name":"bufferViewScalar"},{"buffer":0,"byteOffset":7032,"byteLength":84384,"byteStride":12,"name":"bufferViewFloatVec3"},{"buffer":0,"byteOffset":91416,"byteLength":28128,"byteStride":8,"name":"bufferViewFloatVec2"}],"buffers":[{"uri":"House.bin","byteLength":119544}],"materials":[{"pbrMetallicRoughness":{"baseColorFactor":[0.5372549,0.5529412,0.152941182,1.0],"metallicFactor":0.0,"roughnessFactor":0.450053632},"name":"02 - Default"},{"pbrMetallicRoughness":{"baseColorFactor":[0.054901965,0.0,0.776470661,1.0],"metallicFactor":0.0,"roughnessFactor":0.450053632},"name":"07 - Default"},{"pbrMetallicRoughness":{"baseColorFactor":[0.270588249,0.192156881,0.07058824,1.0],"metallicFactor":0.0,"roughnessFactor":0.450053632},"name":"03 - Default"},{"pbrMetallicRoughness":{"baseColorFactor":[0.5882353,0.0,0.0,1.0],"metallicFactor":0.0,"roughnessFactor":0.450053632},"name":"01 - Default"},{"pbrMetallicRoughness":{"baseColorFactor":[0.0,0.839215755,0.0588235334,1.0],"metallicFactor":0.0,"roughnessFactor":0.450053632},"name":"08 - Default"}]}