{"asset":{"version":"2.0","generator":"babylon.js glTF exporter for 3dsmax 2018 v20200917.1"},"scene":0,"scenes":[{"nodes":[0,6]}],"nodes":[{"children":[1,2,3,4,5],"translation":[0.09860526,0.790715039,-0.137108639],"name":"ovosch"},{"mesh":0,"translation":[-0.04339058,-0.790715039,-0.00691561447],"scale":[0.9631018,1.0,0.9302353],"name":"Cylinder001"},{"mesh":1,"translation":[-0.09772361,0.3333607,-0.159269392],"rotation":[-0.17633836,-0.6103903,0.7665202,-0.0936761945],"scale":[0.7418479,0.7650473,1.22793758],"name":"Loft002"},{"mesh":2,"translation":[0.129428491,0.384155661,0.110661767],"rotation":[0.763708055,-0.137691364,0.135251164,0.616034269],"scale":[0.741848,0.7650472,1.227937],"name":"Loft001"},{"mesh":3,"translation":[-0.0140627921,-0.7277982,0.000712795649],"scale":[1.09983063,1.0,1.12308836],"name":"Cone001"},{"mesh":4,"translation":[-0.0354539528,-0.790715039,0.0],"name":"Tube001"},{"name":"Default light"}],"meshes":[{"primitives":[{"attributes":{"POSITION":1,"NORMAL":2,"TEXCOORD_0":3},"indices":0,"material":0}],"name":"Cylinder001"},{"primitives":[{"attributes":{"POSITION":5,"NORMAL":6},"indices":4,"material":1}],"name":"Loft002"},{"primitives":[{"attributes":{"POSITION":8,"NORMAL":9},"indices":7,"material":1}],"name":"Loft001"},{"primitives":[{"attributes":{"POSITION":11,"NORMAL":12,"TEXCOORD_0":13},"indices":10,"material":2}],"name":"Cone001"},{"primitives":[{"attributes":{"POSITION":15,"NORMAL":16,"TEXCOORD_0":17},"indices":14,"material":0}],"name":"Tube001"}],"accessors":[{"bufferView":0,"componentType":5123,"count":648,"type":"SCALAR","name":"accessorIndices"},{"bufferView":1,"componentType":5126,"count":648,"max":[0.439449668,0.011268286,0.432773471],"min":[-0.439449668,0.0,-0.432773471],"type":"VEC3","name":"accessorPositions"},{"bufferView":1,"byteOffset":7776,"componentType":5126,"count":648,"type":"VEC3","name":"accessorNormals"},{"bufferView":2,"componentType":5126,"count":648,"type":"VEC2","name":"accessorUVs"},{"bufferView":0,"byteOffset":1296,"componentType":5123,"count":13824,"type":"SCALAR","name":"accessorIndices"},{"bufferView":1,"byteOffset":15552,"componentType":5126,"count":13824,"max":[0.296877652,0.02540866,0.584098041],"min":[-0.346375018,-0.0383026041,-0.3441407],"type":"VEC3","name":"accessorPositions"},{"bufferView":1,"byteOffset":181440,"componentType":5126,"count":13824,"type":"VEC3","name":"accessorNormals"},{"bufferView":0,"byteOffset":28944,"componentType":5123,"count":13824,"type":"SCALAR","name":"accessorIndices"},{"bufferView":1,"byteOffset":347328,"componentType":5126,"count":13824,"max":[0.296877652,0.02540866,0.584098041],"min":[-0.346375018,-0.0383026041,-0.3441407],"type":"VEC3","name":"accessorPositions"},{"bufferView":1,"byteOffset":513216,"componentType":5126,"count":13824,"type":"VEC3","name":"accessorNormals"},{"bufferView":0,"byteOffset":56592,"componentType":5123,"count":864,"type":"SCALAR","name":"accessorIndices"},{"bufferView":1,"byteOffset":679104,"componentType":5126,"count":864,"max":[0.3193556,0.496497452,0.3193556],"min":[-0.3193556,-0.07277241,-0.3193556],"type":"VEC3","name":"accessorPositions"},{"bufferView":1,"byteOffset":689472,"componentType":5126,"count":864,"type":"VEC3","name":"accessorNormals"},{"bufferView":2,"byteOffset":5184,"componentType":5126,"count":864,"type":"VEC2","name":"accessorUVs"},{"bufferView":0,"byteOffset":58320,"componentType":5123,"count":1296,"type":"SCALAR","name":"accessorIndices"},{"bufferView":1,"byteOffset":699840,"componentType":5126,"count":1296,"max":[0.423829645,0.5446435,0.430367857],"min":[-0.4360704,0.0,-0.430367857],"type":"VEC3","name":"accessorPositions"},{"bufferView":1,"byteOffset":715392,"componentType":5126,"count":1296,"type":"VEC3","name":"accessorNormals"},{"bufferView":2,"byteOffset":12096,"componentType":5126,"count":1296,"type":"VEC2","name":"accessorUVs"}],"bufferViews":[{"buffer":0,"byteLength":60912,"name":"bufferViewScalar"},{"buffer":0,"byteOffset":60912,"byteLength":730944,"byteStride":12,"name":"bufferViewFloatVec3"},{"buffer":0,"byteOffset":791856,"byteLength":22464,"byteStride":8,"name":"bufferViewFloatVec2"}],"buffers":[{"uri":"ovosch.bin","byteLength":814320}],"materials":[{"pbrMetallicRoughness":{"baseColorTexture":{"index":0},"metallicFactor":0.0,"roughnessFactor":0.450053632},"name":"Material #30"},{"pbrMetallicRoughness":{"baseColorFactor":[0.0,0.309803933,0.0588235334,1.0],"metallicFactor":0.0,"roughnessFactor":0.450053632},"name":"03 - Default"},{"pbrMetallicRoughness":{"baseColorTexture":{"index":1},"metallicRoughnessTexture":{"index":2}},"name":"02 - Default"}],"textures":[{"sampler":0,"source":0,"name":"list.jpg"},{"sampler":0,"source":1,"name":"ground.png"},{"sampler":0,"source":2,"name":"MR_ground.png_spec_ground_gloss_25,6.png"}],"images":[{"uri":"./list.jpg"},{"uri":"./ground.png"},{"uri":"./MR_ground.png_spec_ground_gloss_25,6.png"}],"samplers":[{"magFilter":9729,"minFilter":9987}]}