{"asset":{"version":"2.0","generator":"babylon.js glTF exporter for 3dsmax 2018 v20200917.1"},"scene":0,"scenes":[{"nodes":[0,27]}],"nodes":[{"children":[1,2,3,4,5,6,7,8,9,10,11,12,13,14,15,16,17,18,19,20,21,22,23,24,25,26],"translation":[0.0242764484,0.97502166,0.0263825227],"name":"robot"},{"mesh":0,"translation":[-0.0191334486,-0.6757174,-0.008593783],"scale":[0.9627419,0.9627419,0.9627419],"name":"Box001"},{"mesh":1,"translation":[-0.017943114,-0.671909153,-0.0304269213],"name":"Cone001"},{"mesh":2,"translation":[-0.0171844251,0.103701614,-0.00775449257],"scale":[0.6129296,0.119741164,0.813405931],"name":"Box002"},{"mesh":3,"translation":[-0.0390013,0.1432583,0.0796978846],"rotation":[0.7071068,0.0,0.0,0.7071067],"name":"Tube001"},{"mesh":4,"translation":[-0.286105037,-0.0103662275,0.13944374],"name":"GeoSphere003"},{"mesh":5,"translation":[0.135433182,-0.452391863,-0.3694569],"rotation":[-0.00304615754,-0.747143149,0.6646507,0.00271004788],"name":"Tube003"},{"mesh":6,"translation":[0.374669582,-0.675857365,0.612129569],"rotation":[-0.4996616,-0.5013636,-0.5003885,-0.498582184],"scale":[0.756788969,0.999998331,0.7319489],"name":"Cylinder001"},{"mesh":7,"translation":[0.376645625,-0.680726,0.6008696],"rotation":[-0.500320554,-0.5003207,-0.499679267,-0.4996792],"scale":[0.7183447,1.22739327,0.717828333],"name":"Tube004"},{"mesh":8,"translation":[0.3729255,-0.68635726,0.8085691],"rotation":[-0.5003206,0.5003206,-0.499679178,0.499679238],"scale":[1.0,2.71102476,1.0],"name":"Tube005"},{"mesh":9,"translation":[0.374807149,-0.680726,-0.8325256],"rotation":[-0.500320554,-0.5003207,-0.499679267,-0.4996792],"scale":[0.7183447,1.22739327,0.717828333],"name":"Tube006"},{"mesh":10,"translation":[0.3728311,-0.675857365,-0.821265638],"rotation":[-0.4996616,-0.5013636,-0.5003885,-0.498582184],"scale":[0.756788969,0.999998331,0.7319489],"name":"Cylinder002"},{"mesh":11,"translation":[-0.0220664088,-0.680726,-0.8325256],"rotation":[-0.500320554,-0.5003207,-0.499679267,-0.4996792],"scale":[0.7183447,1.22739327,0.717828333],"name":"Tube007"},{"mesh":12,"translation":[-0.0240424518,-0.675857365,-0.821265638],"rotation":[-0.4996616,-0.5013636,-0.5003885,-0.498582184],"scale":[0.756788969,0.999998331,0.7319489],"name":"Cylinder003"},{"mesh":13,"translation":[-0.0239480771,-0.68635726,0.8085691],"rotation":[-0.5003206,0.5003206,-0.499679178,0.499679238],"scale":[1.0,2.71102476,1.0],"name":"Tube008"},{"mesh":14,"translation":[-0.0202279557,-0.680726,0.6008696],"rotation":[-0.500320554,-0.5003207,-0.499679267,-0.4996792],"scale":[0.7183447,1.22739327,0.717828333],"name":"Tube009"},{"mesh":15,"translation":[-0.0222039986,-0.675857365,0.612129569],"rotation":[-0.4996616,-0.5013636,-0.5003885,-0.498582184],"scale":[0.756788969,0.999998331,0.7319489],"name":"Cylinder004"},{"mesh":16,"translation":[-0.37688297,-0.680726,-0.8325256],"rotation":[-0.500320554,-0.5003207,-0.499679267,-0.4996792],"scale":[0.7183447,1.22739327,0.717828333],"name":"Tube010"},{"mesh":17,"translation":[-0.378859,-0.675857365,-0.821265638],"rotation":[-0.4996616,-0.5013636,-0.5003885,-0.498582184],"scale":[0.756788969,0.999998331,0.7319489],"name":"Cylinder005"},{"mesh":18,"translation":[-0.378764629,-0.68635726,0.8085691],"rotation":[-0.5003206,0.5003206,-0.499679178,0.499679238],"scale":[1.0,2.71102476,1.0],"name":"Tube011"},{"mesh":19,"translation":[-0.286105037,-0.0103662275,-0.198904961],"name":"GeoSphere002"},{"mesh":20,"translation":[-0.377020568,-0.675857365,0.612129569],"rotation":[-0.4996616,-0.5013636,-0.5003885,-0.498582184],"scale":[0.756788969,0.999998331,0.7319489],"name":"Cylinder006"},{"mesh":21,"translation":[-0.90846777,-0.97502166,-0.0621117465],"name":"Box003"},{"mesh":22,"translation":[-0.375044525,-0.680726,0.6008696],"rotation":[-0.500320554,-0.5003207,-0.499679267,-0.4996792],"scale":[0.7183447,1.22739327,0.717828333],"name":"Tube012"},{"mesh":23,"translation":[0.135433182,-0.452391863,0.384540349],"rotation":[0.7044456,0.005782255,0.0048748157,0.7097177],"scale":[1.0,1.0,0.9999998],"name":"Tube002"},{"mesh":24,"translation":[0.09260108,0.7977662,0.132061541],"name":"GeoSphere001"},{"mesh":25,"translation":[0.0943884,-0.0426785946,0.134672046],"scale":[0.154216632,0.392586768,0.406572163],"name":"Tube013"},{"name":"Default light"}],"meshes":[{"primitives":[{"attributes":{"POSITION":1,"NORMAL":2,"TEXCOORD_0":3},"indices":0,"material":0}],"name":"Box001"},{"primitives":[{"attributes":{"POSITION":5,"NORMAL":6,"TEXCOORD_0":7},"indices":4,"material":0}],"name":"Cone001"},{"primitives":[{"attributes":{"POSITION":9,"NORMAL":10,"TEXCOORD_0":11},"indices":8,"material":0}],"name":"Box002"},{"primitives":[{"attributes":{"POSITION":13,"NORMAL":14,"TEXCOORD_0":15},"indices":12,"material":0}],"name":"Tube001"},{"primitives":[{"attributes":{"POSITION":17,"NORMAL":18,"TEXCOORD_0":19},"indices":16,"material":1}],"name":"GeoSphere003"},{"primitives":[{"attributes":{"POSITION":21,"NORMAL":22,"TEXCOORD_0":23},"indices":20,"material":2}],"name":"Tube003"},{"primitives":[{"attributes":{"POSITION":25,"NORMAL":26,"TEXCOORD_0":27},"indices":24,"material":0}],"name":"Cylinder001"},{"primitives":[{"attributes":{"POSITION":29,"NORMAL":30,"TEXCOORD_0":31},"indices":28,"material":3}],"name":"Tube004"},{"primitives":[{"attributes":{"POSITION":33,"NORMAL":34,"TEXCOORD_0":35},"indices":32,"material":4}],"name":"Tube005"},{"primitives":[{"attributes":{"POSITION":37,"NORMAL":38,"TEXCOORD_0":39},"indices":36,"material":3}],"name":"Tube006"},{"primitives":[{"attributes":{"POSITION":41,"NORMAL":42,"TEXCOORD_0":43},"indices":40,"material":0}],"name":"Cylinder002"},{"primitives":[{"attributes":{"POSITION":45,"NORMAL":46,"TEXCOORD_0":47},"indices":44,"material":3}],"name":"Tube007"},{"primitives":[{"attributes":{"POSITION":49,"NORMAL":50,"TEXCOORD_0":51},"indices":48,"material":0}],"name":"Cylinder003"},{"primitives":[{"attributes":{"POSITION":53,"NORMAL":54,"TEXCOORD_0":55},"indices":52,"material":4}],"name":"Tube008"},{"primitives":[{"attributes":{"POSITION":57,"NORMAL":58,"TEXCOORD_0":59},"indices":56,"material":3}],"name":"Tube009"},{"primitives":[{"attributes":{"POSITION":61,"NORMAL":62,"TEXCOORD_0":63},"indices":60,"material":0}],"name":"Cylinder004"},{"primitives":[{"attributes":{"POSITION":65,"NORMAL":66,"TEXCOORD_0":67},"indices":64,"material":3}],"name":"Tube010"},{"primitives":[{"attributes":{"POSITION":69,"NORMAL":70,"TEXCOORD_0":71},"indices":68,"material":0}],"name":"Cylinder005"},{"primitives":[{"attributes":{"POSITION":73,"NORMAL":74,"TEXCOORD_0":75},"indices":72,"material":4}],"name":"Tube011"},{"primitives":[{"attributes":{"POSITION":77,"NORMAL":78,"TEXCOORD_0":79},"indices":76,"material":1}],"name":"GeoSphere002"},{"primitives":[{"attributes":{"POSITION":81,"NORMAL":82,"TEXCOORD_0":83},"indices":80,"material":0}],"name":"Cylinder006"},{"primitives":[{"attributes":{"POSITION":85,"NORMAL":86,"TEXCOORD_0":87},"indices":84,"material":2}],"name":"Box003"},{"primitives":[{"attributes":{"POSITION":89,"NORMAL":90,"TEXCOORD_0":91},"indices":88,"material":3}],"name":"Tube012"},{"primitives":[{"attributes":{"POSITION":93,"NORMAL":94,"TEXCOORD_0":95},"indices":92,"material":2}],"name":"Tube002"},{"primitives":[{"attributes":{"POSITION":97,"NORMAL":98,"TEXCOORD_0":99},"indices":96,"material":1}],"name":"GeoSphere001"},{"primitives":[{"attributes":{"POSITION":101,"NORMAL":102,"TEXCOORD_0":103},"indices":100,"material":0}],"name":"Tube013"}],"accessors":[{"bufferView":0,"componentType":5123,"count":36,"type":"SCALAR","name":"accessorIndices"},{"bufferView":1,"componentType":5126,"count":36,"max":[0.5337205,0.4462424,0.50876826],"min":[-0.5337205,0.0,-0.50876826],"type":"VEC3","name":"accessorPositions"},{"bufferView":1,"byteOffset":432,"componentType":5126,"count":36,"type":"VEC3","name":"accessorNormals"},{"bufferView":2,"componentType":5126,"count":36,"type":"VEC2","name":"accessorUVs"},{"bufferView":0,"byteOffset":72,"componentType":5123,"count":864,"type":"SCALAR","name":"accessorIndices"},{"bufferView":1,"byteOffset":864,"componentType":5126,"count":864,"max":[0.312356025,0.7980404,0.312356025],"min":[-0.312356025,0.0,-0.312356025],"type":"VEC3","name":"accessorPositions"},{"bufferView":1,"byteOffset":11232,"componentType":5126,"count":864,"type":"VEC3","name":"accessorNormals"},{"bufferView":2,"byteOffset":288,"componentType":5126,"count":864,"type":"VEC2","name":"accessorUVs"},{"bufferView":0,"byteOffset":1800,"componentType":5123,"count":36,"type":"SCALAR","name":"accessorIndices"},{"bufferView":1,"byteOffset":21600,"componentType":5126,"count":36,"max":[0.5337205,0.4462424,0.50876826],"min":[-0.5337205,0.0,-0.50876826],"type":"VEC3","name":"accessorPositions"},{"bufferView":1,"byteOffset":22032,"componentType":5126,"count":36,"type":"VEC3","name":"accessorNormals"},{"bufferView":2,"byteOffset":7200,"componentType":5126,"count":36,"type":"VEC2","name":"accessorUVs"},{"bufferView":0,"byteOffset":1872,"componentType":5123,"count":1296,"type":"SCALAR","name":"accessorIndices"},{"bufferView":1,"byteOffset":22464,"componentType":5126,"count":1296,"max":[0.164409265,0.0,0.166945532],"min":[-0.164409265,-0.2184386,-0.166945532],"type":"VEC3","name":"accessorPositions"},{"bufferView":1,"byteOffset":38016,"componentType":5126,"count":1296,"type":"VEC3","name":"accessorNormals"},{"bufferView":2,"byteOffset":7488,"componentType":5126,"count":1296,"type":"VEC2","name":"accessorUVs"},{"bufferView":0,"byteOffset":4464,"componentType":5123,"count":960,"type":"SCALAR","name":"accessorIndices"},{"bufferView":1,"byteOffset":53568,"componentType":5126,"count":960,"max":[0.03809944,0.0380994454,0.03809944],"min":[-0.03809945,-0.0380994454,-0.0380994454],"type":"VEC3","name":"accessorPositions"},{"bufferView":1,"byteOffset":65088,"componentType":5126,"count":960,"type":"VEC3","name":"accessorNormals"},{"bufferView":2,"byteOffset":17856,"componentType":5126,"count":960,"type":"VEC2","name":"accessorUVs"},{"bufferView":0,"byteOffset":6384,"componentType":5123,"count":1296,"type":"SCALAR","name":"accessorIndices"},{"bufferView":1,"byteOffset":76608,"componentType":5126,"count":1296,"max":[0.157519326,1.09235144,0.3718932],"min":[-0.1598108,-0.141287372,-0.1885717],"type":"VEC3","name":"accessorPositions"},{"bufferView":1,"byteOffset":92160,"componentType":5126,"count":1296,"type":"VEC3","name":"accessorNormals"},{"bufferView":2,"byteOffset":25536,"componentType":5126,"count":1296,"type":"VEC2","name":"accessorUVs"},{"bufferView":0,"byteOffset":8976,"componentType":5123,"count":648,"type":"SCALAR","name":"accessorIndices"},{"bufferView":1,"byteOffset":107712,"componentType":5126,"count":648,"max":[0.207729712,0.176195532,0.204573855],"min":[-0.207729712,0.0,-0.204573855],"type":"VEC3","name":"accessorPositions"},{"bufferView":1,"byteOffset":115488,"componentType":5126,"count":648,"type":"VEC3","name":"accessorNormals"},{"bufferView":2,"byteOffset":35904,"componentType":5126,"count":648,"type":"VEC2","name":"accessorUVs"},{"bufferView":0,"byteOffset":10272,"componentType":5123,"count":1296,"type":"SCALAR","name":"accessorIndices"},{"bufferView":1,"byteOffset":123264,"componentType":5126,"count":1296,"max":[0.2288296,0.150786728,0.232359678],"min":[-0.2288296,0.0,-0.232359678],"type":"VEC3","name":"accessorPositions"},{"bufferView":1,"byteOffset":138816,"componentType":5126,"count":1296,"type":"VEC3","name":"accessorNormals"},{"bufferView":2,"byteOffset":41088,"componentType":5126,"count":1296,"type":"VEC2","name":"accessorUVs"},{"bufferView":0,"byteOffset":12864,"componentType":5123,"count":1296,"type":"SCALAR","name":"accessorIndices"},{"bufferView":1,"byteOffset":154368,"componentType":5126,"count":1296,"max":[0.0329682343,0.6092706,0.03347682],"min":[-0.0329682343,0.0,-0.03347682],"type":"VEC3","name":"accessorPositions"},{"bufferView":1,"byteOffset":169920,"componentType":5126,"count":1296,"type":"VEC3","name":"accessorNormals"},{"bufferView":2,"byteOffset":51456,"componentType":5126,"count":1296,"type":"VEC2","name":"accessorUVs"},{"bufferView":0,"byteOffset":15456,"componentType":5123,"count":1296,"type":"SCALAR","name":"accessorIndices"},{"bufferView":1,"byteOffset":185472,"componentType":5126,"count":1296,"max":[0.2288296,0.150786728,0.232359678],"min":[-0.2288296,0.0,-0.232359678],"type":"VEC3","name":"accessorPositions"},{"bufferView":1,"byteOffset":201024,"componentType":5126,"count":1296,"type":"VEC3","name":"accessorNormals"},{"bufferView":2,"byteOffset":61824,"componentType":5126,"count":1296,"type":"VEC2","name":"accessorUVs"},{"bufferView":0,"byteOffset":18048,"componentType":5123,"count":648,"type":"SCALAR","name":"accessorIndices"},{"bufferView":1,"byteOffset":216576,"componentType":5126,"count":648,"max":[0.207729712,0.176195532,0.204573855],"min":[-0.207729712,0.0,-0.204573855],"type":"VEC3","name":"accessorPositions"},{"bufferView":1,"byteOffset":224352,"componentType":5126,"count":648,"type":"VEC3","name":"accessorNormals"},{"bufferView":2,"byteOffset":72192,"componentType":5126,"count":648,"type":"VEC2","name":"accessorUVs"},{"bufferView":0,"byteOffset":19344,"componentType":5123,"count":1296,"type":"SCALAR","name":"accessorIndices"},{"bufferView":1,"byteOffset":232128,"componentType":5126,"count":1296,"max":[0.2288296,0.150786728,0.232359678],"min":[-0.2288296,0.0,-0.232359678],"type":"VEC3","name":"accessorPositions"},{"bufferView":1,"byteOffset":247680,"componentType":5126,"count":1296,"type":"VEC3","name":"accessorNormals"},{"bufferView":2,"byteOffset":77376,"componentType":5126,"count":1296,"type":"VEC2","name":"accessorUVs"},{"bufferView":0,"byteOffset":21936,"componentType":5123,"count":648,"type":"SCALAR","name":"accessorIndices"},{"bufferView":1,"byteOffset":263232,"componentType":5126,"count":648,"max":[0.207729712,0.176195532,0.204573855],"min":[-0.207729712,0.0,-0.204573855],"type":"VEC3","name":"accessorPositions"},{"bufferView":1,"byteOffset":271008,"componentType":5126,"count":648,"type":"VEC3","name":"accessorNormals"},{"bufferView":2,"byteOffset":87744,"componentType":5126,"count":648,"type":"VEC2","name":"accessorUVs"},{"bufferView":0,"byteOffset":23232,"componentType":5123,"count":1296,"type":"SCALAR","name":"accessorIndices"},{"bufferView":1,"byteOffset":278784,"componentType":5126,"count":1296,"max":[0.0329682343,0.6092706,0.03347682],"min":[-0.0329682343,0.0,-0.03347682],"type":"VEC3","name":"accessorPositions"},{"bufferView":1,"byteOffset":294336,"componentType":5126,"count":1296,"type":"VEC3","name":"accessorNormals"},{"bufferView":2,"byteOffset":92928,"componentType":5126,"count":1296,"type":"VEC2","name":"accessorUVs"},{"bufferView":0,"byteOffset":25824,"componentType":5123,"count":1296,"type":"SCALAR","name":"accessorIndices"},{"bufferView":1,"byteOffset":309888,"componentType":5126,"count":1296,"max":[0.2288296,0.150786728,0.232359678],"min":[-0.2288296,0.0,-0.232359678],"type":"VEC3","name":"accessorPositions"},{"bufferView":1,"byteOffset":325440,"componentType":5126,"count":1296,"type":"VEC3","name":"accessorNormals"},{"bufferView":2,"byteOffset":103296,"componentType":5126,"count":1296,"type":"VEC2","name":"accessorUVs"},{"bufferView":0,"byteOffset":28416,"componentType":5123,"count":648,"type":"SCALAR","name":"accessorIndices"},{"bufferView":1,"byteOffset":340992,"componentType":5126,"count":648,"max":[0.207729712,0.176195532,0.204573855],"min":[-0.207729712,0.0,-0.204573855],"type":"VEC3","name":"accessorPositions"},{"bufferView":1,"byteOffset":348768,"componentType":5126,"count":648,"type":"VEC3","name":"accessorNormals"},{"bufferView":2,"byteOffset":113664,"componentType":5126,"count":648,"type":"VEC2","name":"accessorUVs"},{"bufferView":0,"byteOffset":29712,"componentType":5123,"count":1296,"type":"SCALAR","name":"accessorIndices"},{"bufferView":1,"byteOffset":356544,"componentType":5126,"count":1296,"max":[0.2288296,0.150786728,0.232359678],"min":[-0.2288296,0.0,-0.232359678],"type":"VEC3","name":"accessorPositions"},{"bufferView":1,"byteOffset":372096,"componentType":5126,"count":1296,"type":"VEC3","name":"accessorNormals"},{"bufferView":2,"byteOffset":118848,"componentType":5126,"count":1296,"type":"VEC2","name":"accessorUVs"},{"bufferView":0,"byteOffset":32304,"componentType":5123,"count":648,"type":"SCALAR","name":"accessorIndices"},{"bufferView":1,"byteOffset":387648,"componentType":5126,"count":648,"max":[0.207729712,0.176195532,0.204573855],"min":[-0.207729712,0.0,-0.204573855],"type":"VEC3","name":"accessorPositions"},{"bufferView":1,"byteOffset":395424,"componentType":5126,"count":648,"type":"VEC3","name":"accessorNormals"},{"bufferView":2,"byteOffset":129216,"componentType":5126,"count":648,"type":"VEC2","name":"accessorUVs"},{"bufferView":0,"byteOffset":33600,"componentType":5123,"count":1296,"type":"SCALAR","name":"accessorIndices"},{"bufferView":1,"byteOffset":403200,"componentType":5126,"count":1296,"max":[0.0329682343,0.6092706,0.03347682],"min":[-0.0329682343,0.0,-0.03347682],"type":"VEC3","name":"accessorPositions"},{"bufferView":1,"byteOffset":418752,"componentType":5126,"count":1296,"type":"VEC3","name":"accessorNormals"},{"bufferView":2,"byteOffset":134400,"componentType":5126,"count":1296,"type":"VEC2","name":"accessorUVs"},{"bufferView":0,"byteOffset":36192,"componentType":5123,"count":960,"type":"SCALAR","name":"accessorIndices"},{"bufferView":1,"byteOffset":434304,"componentType":5126,"count":960,"max":[0.03809944,0.0380994454,0.03809944],"min":[-0.03809945,-0.0380994454,-0.0380994454],"type":"VEC3","name":"accessorPositions"},{"bufferView":1,"byteOffset":445824,"componentType":5126,"count":960,"type":"VEC3","name":"accessorNormals"},{"bufferView":2,"byteOffset":144768,"componentType":5126,"count":960,"type":"VEC2","name":"accessorUVs"},{"bufferView":0,"byteOffset":38112,"componentType":5123,"count":648,"type":"SCALAR","name":"accessorIndices"},{"bufferView":1,"byteOffset":457344,"componentType":5126,"count":648,"max":[0.207729712,0.176195532,0.204573855],"min":[-0.207729712,0.0,-0.204573855],"type":"VEC3","name":"accessorPositions"},{"bufferView":1,"byteOffset":465120,"componentType":5126,"count":648,"type":"VEC3","name":"accessorNormals"},{"bufferView":2,"byteOffset":152448,"componentType":5126,"count":648,"type":"VEC2","name":"accessorUVs"},{"bufferView":0,"byteOffset":39408,"componentType":5123,"count":24,"type":"SCALAR","name":"accessorIndices"},{"bufferView":1,"byteOffset":472896,"componentType":5126,"count":24,"max":[0.738895059,0.841996253,0.13672784],"min":[0.51844424,0.7911588,-0.06962373],"type":"VEC3","name":"accessorPositions"},{"bufferView":1,"byteOffset":473184,"componentType":5126,"count":24,"type":"VEC3","name":"accessorNormals"},{"bufferView":2,"byteOffset":157632,"componentType":5126,"count":24,"type":"VEC2","name":"accessorUVs"},{"bufferView":0,"byteOffset":39456,"componentType":5123,"count":1296,"type":"SCALAR","name":"accessorIndices"},{"bufferView":1,"byteOffset":473472,"componentType":5126,"count":1296,"max":[0.2288296,0.150786728,0.232359678],"min":[-0.2288296,0.0,-0.232359678],"type":"VEC3","name":"accessorPositions"},{"bufferView":1,"byteOffset":489024,"componentType":5126,"count":1296,"type":"VEC3","name":"accessorNormals"},{"bufferView":2,"byteOffset":157824,"componentType":5126,"count":1296,"type":"VEC2","name":"accessorUVs"},{"bufferView":0,"byteOffset":42048,"componentType":5123,"count":1296,"type":"SCALAR","name":"accessorIndices"},{"bufferView":1,"byteOffset":504576,"componentType":5126,"count":1296,"max":[0.153147817,1.0923605,0.3718556],"min":[-0.164159775,-0.141296431,-0.188534319],"type":"VEC3","name":"accessorPositions"},{"bufferView":1,"byteOffset":520128,"componentType":5126,"count":1296,"type":"VEC3","name":"accessorNormals"},{"bufferView":2,"byteOffset":168192,"componentType":5126,"count":1296,"type":"VEC2","name":"accessorUVs"},{"bufferView":0,"byteOffset":44640,"componentType":5123,"count":960,"type":"SCALAR","name":"accessorIndices"},{"bufferView":1,"byteOffset":535680,"componentType":5126,"count":960,"max":[0.0473383,0.0473383,0.0473383],"min":[-0.0473382957,-0.0473383,-0.0473383],"type":"VEC3","name":"accessorPositions"},{"bufferView":1,"byteOffset":547200,"componentType":5126,"count":960,"type":"VEC3","name":"accessorNormals"},{"bufferView":2,"byteOffset":178560,"componentType":5126,"count":960,"type":"VEC2","name":"accessorUVs"},{"bufferView":0,"byteOffset":46560,"componentType":5123,"count":1296,"type":"SCALAR","name":"accessorIndices"},{"bufferView":1,"byteOffset":558720,"componentType":5126,"count":1296,"max":[0.028771745,2.23957586,0.0292155948],"min":[-0.028771745,0.0,-0.0292155948],"type":"VEC3","name":"accessorPositions"},{"bufferView":1,"byteOffset":574272,"componentType":5126,"count":1296,"type":"VEC3","name":"accessorNormals"},{"bufferView":2,"byteOffset":186240,"componentType":5126,"count":1296,"type":"VEC2","name":"accessorUVs"}],"bufferViews":[{"buffer":0,"byteLength":49152,"name":"bufferViewScalar"},{"buffer":0,"byteOffset":49152,"byteLength":589824,"byteStride":12,"name":"bufferViewFloatVec3"},{"buffer":0,"byteOffset":638976,"byteLength":196608,"byteStride":8,"name":"bufferViewFloatVec2"}],"buffers":[{"uri":"robot.bin","byteLength":835584}],"materials":[{"pbrMetallicRoughness":{"baseColorFactor":[0.211764723,0.211764723,0.211764723,1.0],"metallicFactor":0.0,"roughnessFactor":0.450053632},"name":"07 - Default"},{"pbrMetallicRoughness":{"baseColorFactor":[0.5882353,0.0,0.0,1.0],"metallicFactor":0.0,"roughnessFactor":0.450053632},"name":"09 - Default"},{"pbrMetallicRoughness":{"metallicFactor":0.0,"roughnessFactor":0.450053632},"name":"02 - Default"},{"pbrMetallicRoughness":{"baseColorFactor":[0.0,0.0,0.0,1.0],"metallicFactor":0.0,"roughnessFactor":0.450053632},"name":"01 - Default"},{"pbrMetallicRoughness":{"baseColorFactor":[0.384313762,0.384313762,0.6313726,1.0],"metallicFactor":0.0,"roughnessFactor":0.450053632},"name":"08 - Default"}]}