{"asset":{"version":"2.0","generator":"babylon.js glTF exporter for 3dsmax 2018 v20200917.1"},"scene":0,"scenes":[{"nodes":[0,15]}],"nodes":[{"children":[1,2,3,4,5,6,7,8,9,10,11,12,13,14],"translation":[-0.0004371826,0.583869636,0.0872428343],"name":"snegovick"},{"mesh":0,"translation":[-0.0232580286,0.5874505,0.129158348],"rotation":[0.6546989,0.0,0.0,0.755889833],"name":"Cone001"},{"mesh":1,"translation":[-0.00535921752,0.7471123,-0.07974658],"name":"Cylinder001"},{"mesh":2,"translation":[-0.008515202,0.7471123,-0.08913594],"scale":[1.0,0.103617154,1.0],"name":"Cylinder002"},{"mesh":3,"translation":[-0.269399673,0.337186933,-0.009310285],"rotation":[0.0,0.0,0.6285285,0.7777866],"name":"Tube002"},{"mesh":4,"translation":[-0.006883222,0.7929812,-0.0769906],"scale":[1.63835347,1.0,1.70669627],"name":"Tube001"},{"mesh":5,"translation":[-0.0173512176,0.570173264,-0.0619046278],"name":"GeoSphere003"},{"mesh":6,"translation":[0.08689019,0.6223414,0.132525146],"scale":[0.177596718,0.245640576,0.08902677],"name":"GeoSphere004"},{"mesh":7,"translation":[-0.114848562,0.6223414,0.132525146],"scale":[0.177596718,0.245640576,0.08902677],"name":"GeoSphere005"},{"mesh":8,"translation":[-0.009351658,0.111591831,0.2732894],"name":"GeoSphere006"},{"mesh":9,"translation":[-0.009351658,0.259033948,0.253990054],"name":"GeoSphere007"},{"mesh":10,"translation":[-0.009351658,0.406077683,0.166074648],"name":"GeoSphere008"},{"mesh":11,"translation":[-0.0223744642,-0.3869743,-0.0165705234],"name":"GeoSphere001"},{"mesh":12,"translation":[0.24614355,0.337186933,-0.009310285],"rotation":[-0.627048135,-0.775954247,-0.04311589,-0.0533547364],"scale":[1.0,1.00000012,1.00000012],"name":"Tube003"},{"mesh":13,"translation":[-0.012781729,0.167723283,-0.0501266532],"name":"GeoSphere002"},{"name":"Default light"}],"meshes":[{"primitives":[{"attributes":{"POSITION":1,"NORMAL":2,"TEXCOORD_0":3},"indices":0,"material":0}],"name":"Cone001"},{"primitives":[{"attributes":{"POSITION":5,"NORMAL":6,"TEXCOORD_0":7},"indices":4,"material":1}],"name":"Cylinder001"},{"primitives":[{"attributes":{"POSITION":9,"NORMAL":10,"TEXCOORD_0":11},"indices":8,"material":1}],"name":"Cylinder002"},{"primitives":[{"attributes":{"POSITION":13,"NORMAL":14,"TEXCOORD_0":15},"indices":12,"material":2}],"name":"Tube002"},{"primitives":[{"attributes":{"POSITION":17,"NORMAL":18,"TEXCOORD_0":19},"indices":16,"material":3}],"name":"Tube001"},{"primitives":[{"attributes":{"POSITION":21,"NORMAL":22,"TEXCOORD_0":23},"indices":20,"material":4}],"name":"GeoSphere003"},{"primitives":[{"attributes":{"POSITION":25,"NORMAL":26,"TEXCOORD_0":27},"indices":24,"material":1}],"name":"GeoSphere004"},{"primitives":[{"attributes":{"POSITION":29,"NORMAL":30,"TEXCOORD_0":31},"indices":28,"material":1}],"name":"GeoSphere005"},{"primitives":[{"attributes":{"POSITION":33,"NORMAL":34,"TEXCOORD_0":35},"indices":32,"material":1}],"name":"GeoSphere006"},{"primitives":[{"attributes":{"POSITION":37,"NORMAL":38,"TEXCOORD_0":39},"indices":36,"material":1}],"name":"GeoSphere007"},{"primitives":[{"attributes":{"POSITION":41,"NORMAL":42,"TEXCOORD_0":43},"indices":40,"material":1}],"name":"GeoSphere008"},{"primitives":[{"attributes":{"POSITION":45,"NORMAL":46,"TEXCOORD_0":47},"indices":44,"material":4}],"name":"GeoSphere001"},{"primitives":[{"attributes":{"POSITION":49,"NORMAL":50,"TEXCOORD_0":51},"indices":48,"material":2}],"name":"Tube003"},{"primitives":[{"attributes":{"POSITION":53,"NORMAL":54,"TEXCOORD_0":55},"indices":52,"material":4}],"name":"GeoSphere002"}],"accessors":[{"bufferView":0,"componentType":5123,"count":864,"type":"SCALAR","name":"accessorIndices"},{"bufferView":1,"componentType":5126,"count":864,"max":[0.0228254832,0.392421842,0.0228254832],"min":[-0.0228254832,0.0,-0.0228254832],"type":"VEC3","name":"accessorPositions"},{"bufferView":1,"byteOffset":10368,"componentType":5126,"count":864,"type":"VEC3","name":"accessorNormals"},{"bufferView":2,"componentType":5126,"count":864,"type":"VEC2","name":"accessorUVs"},{"bufferView":0,"byteOffset":1728,"componentType":5123,"count":648,"type":"SCALAR","name":"accessorIndices"},{"bufferView":1,"byteOffset":20736,"componentType":5126,"count":648,"max":[0.162121952,0.140853375,0.159658983],"min":[-0.162121952,0.0,-0.159658968],"type":"VEC3","name":"accessorPositions"},{"bufferView":1,"byteOffset":28512,"componentType":5126,"count":648,"type":"VEC3","name":"accessorNormals"},{"bufferView":2,"byteOffset":6912,"componentType":5126,"count":648,"type":"VEC2","name":"accessorUVs"},{"bufferView":0,"byteOffset":3024,"componentType":5123,"count":648,"type":"SCALAR","name":"accessorIndices"},{"bufferView":1,"byteOffset":36288,"componentType":5126,"count":648,"max":[0.24900575,0.0860503241,0.245222822],"min":[-0.24900575,0.0,-0.245222792],"type":"VEC3","name":"accessorPositions"},{"bufferView":1,"byteOffset":44064,"componentType":5126,"count":648,"type":"VEC3","name":"accessorNormals"},{"bufferView":2,"byteOffset":12096,"componentType":5126,"count":648,"type":"VEC2","name":"accessorUVs"},{"bufferView":0,"byteOffset":4320,"componentType":5123,"count":1296,"type":"SCALAR","name":"accessorIndices"},{"bufferView":1,"byteOffset":51840,"componentType":5126,"count":1296,"max":[0.009636348,0.574997962,0.009785003],"min":[-0.009636348,-0.050904233,-0.009785003],"type":"VEC3","name":"accessorPositions"},{"bufferView":1,"byteOffset":67392,"componentType":5126,"count":1296,"type":"VEC3","name":"accessorNormals"},{"bufferView":2,"byteOffset":17280,"componentType":5126,"count":1296,"type":"VEC2","name":"accessorUVs"},{"bufferView":0,"byteOffset":6912,"componentType":5123,"count":1296,"type":"SCALAR","name":"accessorIndices"},{"bufferView":1,"byteOffset":82944,"componentType":5126,"count":1296,"max":[0.09952708,0.0143163512,0.101062439],"min":[-0.09952708,0.0,-0.101062439],"type":"VEC3","name":"accessorPositions"},{"bufferView":1,"byteOffset":98496,"componentType":5126,"count":1296,"type":"VEC3","name":"accessorNormals"},{"bufferView":2,"byteOffset":27648,"componentType":5126,"count":1296,"type":"VEC2","name":"accessorUVs"},{"bufferView":0,"byteOffset":9504,"componentType":5123,"count":960,"type":"SCALAR","name":"accessorIndices"},{"bufferView":1,"byteOffset":114048,"componentType":5126,"count":960,"max":[0.230281487,0.230281442,0.230281457],"min":[-0.230281457,-0.230281442,-0.230281413],"type":"VEC3","name":"accessorPositions"},{"bufferView":1,"byteOffset":125568,"componentType":5126,"count":960,"type":"VEC3","name":"accessorNormals"},{"bufferView":2,"byteOffset":38016,"componentType":5126,"count":960,"type":"VEC2","name":"accessorUVs"},{"bufferView":0,"byteOffset":11424,"componentType":5123,"count":960,"type":"SCALAR","name":"accessorIndices"},{"bufferView":1,"byteOffset":137088,"componentType":5126,"count":960,"max":[0.140084222,0.140084222,0.140084222],"min":[-0.1400842,-0.140084222,-0.1400842],"type":"VEC3","name":"accessorPositions"},{"bufferView":1,"byteOffset":148608,"componentType":5126,"count":960,"type":"VEC3","name":"accessorNormals"},{"bufferView":2,"byteOffset":45696,"componentType":5126,"count":960,"type":"VEC2","name":"accessorUVs"},{"bufferView":0,"byteOffset":13344,"componentType":5123,"count":960,"type":"SCALAR","name":"accessorIndices"},{"bufferView":1,"byteOffset":160128,"componentType":5126,"count":960,"max":[0.140084222,0.140084222,0.140084222],"min":[-0.1400842,-0.140084222,-0.1400842],"type":"VEC3","name":"accessorPositions"},{"bufferView":1,"byteOffset":171648,"componentType":5126,"count":960,"type":"VEC3","name":"accessorNormals"},{"bufferView":2,"byteOffset":53376,"componentType":5126,"count":960,"type":"VEC2","name":"accessorUVs"},{"bufferView":0,"byteOffset":15264,"componentType":5123,"count":960,"type":"SCALAR","name":"accessorIndices"},{"bufferView":1,"byteOffset":183168,"componentType":5126,"count":960,"max":[0.0383757353,0.03837574,0.0383757353],"min":[-0.03837574,-0.03837574,-0.0383757353],"type":"VEC3","name":"accessorPositions"},{"bufferView":1,"byteOffset":194688,"componentType":5126,"count":960,"type":"VEC3","name":"accessorNormals"},{"bufferView":2,"byteOffset":61056,"componentType":5126,"count":960,"type":"VEC2","name":"accessorUVs"},{"bufferView":0,"byteOffset":17184,"componentType":5123,"count":960,"type":"SCALAR","name":"accessorIndices"},{"bufferView":1,"byteOffset":206208,"componentType":5126,"count":960,"max":[0.0383757353,0.03837574,0.0383757353],"min":[-0.03837574,-0.03837574,-0.0383757353],"type":"VEC3","name":"accessorPositions"},{"bufferView":1,"byteOffset":217728,"componentType":5126,"count":960,"type":"VEC3","name":"accessorNormals"},{"bufferView":2,"byteOffset":68736,"componentType":5126,"count":960,"type":"VEC2","name":"accessorUVs"},{"bufferView":0,"byteOffset":19104,"componentType":5123,"count":960,"type":"SCALAR","name":"accessorIndices"},{"bufferView":1,"byteOffset":229248,"componentType":5126,"count":960,"max":[0.0383757353,0.03837574,0.0383757353],"min":[-0.03837574,-0.03837574,-0.0383757353],"type":"VEC3","name":"accessorPositions"},{"bufferView":1,"byteOffset":240768,"componentType":5126,"count":960,"type":"VEC3","name":"accessorNormals"},{"bufferView":2,"byteOffset":76416,"componentType":5126,"count":960,"type":"VEC2","name":"accessorUVs"},{"bufferView":0,"byteOffset":21024,"componentType":5123,"count":960,"type":"SCALAR","name":"accessorIndices"},{"bufferView":1,"byteOffset":252288,"componentType":5126,"count":960,"max":[0.500991464,0.5009914,0.500991464],"min":[-0.500991344,-0.5009914,-0.500991344],"type":"VEC3","name":"accessorPositions"},{"bufferView":1,"byteOffset":263808,"componentType":5126,"count":960,"type":"VEC3","name":"accessorNormals"},{"bufferView":2,"byteOffset":84096,"componentType":5126,"count":960,"type":"VEC2","name":"accessorUVs"},{"bufferView":0,"byteOffset":22944,"componentType":5123,"count":1296,"type":"SCALAR","name":"accessorIndices"},{"bufferView":1,"byteOffset":275328,"componentType":5126,"count":1296,"max":[0.009636348,0.607692,0.009785003],"min":[-0.009636348,-0.08362224,-0.009785003],"type":"VEC3","name":"accessorPositions"},{"bufferView":1,"byteOffset":290880,"componentType":5126,"count":1296,"type":"VEC3","name":"accessorNormals"},{"bufferView":2,"byteOffset":91776,"componentType":5126,"count":1296,"type":"VEC2","name":"accessorUVs"},{"bufferView":0,"byteOffset":25536,"componentType":5123,"count":960,"type":"SCALAR","name":"accessorIndices"},{"bufferView":1,"byteOffset":306432,"componentType":5126,"count":960,"max":[0.343168646,0.343168646,0.343168646],"min":[-0.343168646,-0.343168646,-0.343168616],"type":"VEC3","name":"accessorPositions"},{"bufferView":1,"byteOffset":317952,"componentType":5126,"count":960,"type":"VEC3","name":"accessorNormals"},{"bufferView":2,"byteOffset":102144,"componentType":5126,"count":960,"type":"VEC2","name":"accessorUVs"}],"bufferViews":[{"buffer":0,"byteLength":27456,"name":"bufferViewScalar"},{"buffer":0,"byteOffset":27456,"byteLength":329472,"byteStride":12,"name":"bufferViewFloatVec3"},{"buffer":0,"byteOffset":356928,"byteLength":109824,"byteStride":8,"name":"bufferViewFloatVec2"}],"buffers":[{"uri":"snowman.bin","byteLength":466752}],"materials":[{"pbrMetallicRoughness":{"baseColorFactor":[1.0,0.470588267,0.0,1.0],"metallicFactor":0.0,"roughnessFactor":0.450053632},"name":"08 - Default"},{"pbrMetallicRoughness":{"baseColorFactor":[0.0,0.0,0.0,1.0],"metallicFactor":0.0,"roughnessFactor":0.450053632},"name":"03 - Default"},{"pbrMetallicRoughness":{"baseColorFactor":[0.8352942,0.46274513,0.06666667,1.0],"metallicFactor":0.0,"roughnessFactor":0.450053632},"name":"02 - Default"},{"pbrMetallicRoughness":{"baseColorFactor":[0.5882353,0.0,0.0,1.0],"metallicFactor":0.0,"roughnessFactor":0.450053632},"name":"07 - Default"},{"pbrMetallicRoughness":{"metallicFactor":0.0,"roughnessFactor":0.450053632},"name":"01 - Default"}]}